<?xml version="1.0" ?><svg width="100px" height="100px" viewBox="0 0 100 100" data-name="Layer 1" id="Layer_1" xmlns="http://www.w3.org/2000/svg"><path d="M23.39,63.44l8.69,3,.23,0a14.33,14.33,0,0,0,10.23,4.35H57.26a14.32,14.32,0,0,0,10.23-4.35,1.2,1.2,0,0,0,.2,0l8.63-2.93A8.84,8.84,0,0,0,79.45,48l-5.26-4.15,0,0a14.26,14.26,0,0,0-6.06-8L57.5,29.16a14.37,14.37,0,0,0-15.2,0L31.72,35.82a14.28,14.28,0,0,0-6,8l-.08,0L20.32,48a8.84,8.84,0,0,0,3.07,15.43ZM77.9,50a6.32,6.32,0,0,1,1.64,8,6.43,6.43,0,0,1-4,3.09L70,63a13.8,13.8,0,0,0,.66-1.46l3.22-8.59a14.11,14.11,0,0,0,.88-5.45Zm-44.85-12,10.58-6.66a11.82,11.82,0,0,1,12.54,0l10.58,6.66A11.82,11.82,0,0,1,71.51,52l-3.22,8.59a11.84,11.84,0,0,1-11,7.64H42.54a11.82,11.82,0,0,1-11-7.64L28.29,52A11.82,11.82,0,0,1,33.05,37.94ZM21.87,50l3.2-2.52A14.24,14.24,0,0,0,26,52.92l3.23,8.59A13.07,13.07,0,0,0,29.84,63l-5.72-1.94A6.38,6.38,0,0,1,20.24,58,6.32,6.32,0,0,1,21.87,50Z"/><path d="M42.47,40.61a10.51,10.51,0,0,1,14.86,0,1.25,1.25,0,0,0,.89.37,1.21,1.21,0,0,0,.88-.37,1.25,1.25,0,0,0,0-1.77,13,13,0,0,0-18.4,0,1.25,1.25,0,0,0,1.77,1.77Z"/><path d="M74.69,27.5l.24,0a1.09,1.09,0,0,0,.24-.07l.21-.11a1,1,0,0,0,.19-.16,1.22,1.22,0,0,0,.37-.88,1.07,1.07,0,0,0,0-.25.68.68,0,0,0-.07-.23,1.51,1.51,0,0,0-.11-.22c0-.06-.1-.13-.16-.19a1,1,0,0,0-.19-.15,1.13,1.13,0,0,0-.21-.12L74.93,25a1.27,1.27,0,0,0-1.13.34l-.15.19a.91.91,0,0,0-.11.22,1,1,0,0,0-.08.23,2.11,2.11,0,0,0,0,.25,1.25,1.25,0,0,0,.36.88A1.3,1.3,0,0,0,74.69,27.5Z"/><path d="M73.54,32.92a1.51,1.51,0,0,0,.11.22l.15.19a1,1,0,0,0,.2.15.88.88,0,0,0,.21.12l.24.07a1.45,1.45,0,0,0,.48,0l.24-.07a.88.88,0,0,0,.21-.12.7.7,0,0,0,.19-.15,1.46,1.46,0,0,0,.16-.19,1.51,1.51,0,0,0,.11-.22.9.9,0,0,0,.08-.23,1.94,1.94,0,0,0,0-.24,1.24,1.24,0,0,0-.37-.89.7.7,0,0,0-.19-.15.88.88,0,0,0-.21-.12l-.24-.07a1.29,1.29,0,0,0-.48,0l-.24.07a.88.88,0,0,0-.21.12,1,1,0,0,0-.2.15,1.29,1.29,0,0,0-.36.89,1.94,1.94,0,0,0,0,.24A.9.9,0,0,0,73.54,32.92Z"/><path d="M76.63,29.82a1.55,1.55,0,0,0,.12.22,1.39,1.39,0,0,0,.15.19l.19.16.22.11a1,1,0,0,0,.23.07,1.07,1.07,0,0,0,.25,0A1.26,1.26,0,0,0,79,29.35a1,1,0,0,0,0-.25.88.88,0,0,0-.07-.23,1.51,1.51,0,0,0-.11-.22,1.46,1.46,0,0,0-.16-.19,1.31,1.31,0,0,0-1.77,0,1.29,1.29,0,0,0-.36.89,1.94,1.94,0,0,0,0,.24A1.55,1.55,0,0,0,76.63,29.82Z"/><path d="M70.44,29.82a1.51,1.51,0,0,0,.11.22,1.46,1.46,0,0,0,.16.19,1,1,0,0,0,.19.16l.21.11a1.09,1.09,0,0,0,.24.07l.24,0a1,1,0,0,0,.24,0,1.09,1.09,0,0,0,.24-.07l.21-.11a1.56,1.56,0,0,0,.2-.16,1.25,1.25,0,0,0,.36-.88,2,2,0,0,0,0-.25,1.21,1.21,0,0,0-.19-.45l-.15-.19a1.49,1.49,0,0,0-.2-.15.88.88,0,0,0-.21-.12l-.24-.07a1.25,1.25,0,0,0-1.49,1.23,1.94,1.94,0,0,0,0,.24A1.55,1.55,0,0,0,70.44,29.82Z"/><path d="M22.51,70.82a1.13,1.13,0,0,0,.12.21,1.39,1.39,0,0,0,.15.19l.19.16a1.51,1.51,0,0,0,.22.11,1,1,0,0,0,.23.07,1.07,1.07,0,0,0,.25,0,1,1,0,0,0,.24,0,1.09,1.09,0,0,0,.24-.07l.21-.11.19-.16a1.26,1.26,0,0,0,.37-.88,1.3,1.3,0,0,0-.37-.89,1.27,1.27,0,0,0-1.13-.34l-.23.07a1.55,1.55,0,0,0-.22.12l-.19.15a1.29,1.29,0,0,0-.36.89,1.94,1.94,0,0,0,0,.24A2.17,2.17,0,0,0,22.51,70.82Z"/><path d="M22.78,77.42a1.3,1.3,0,0,0,.89.37,1,1,0,0,0,.24,0,1.09,1.09,0,0,0,.24-.07l.21-.11.19-.16a1.46,1.46,0,0,0,.16-.19,1.51,1.51,0,0,0,.11-.22.88.88,0,0,0,.07-.23,1,1,0,0,0,0-.24,1.3,1.3,0,0,0-.37-.89,1.27,1.27,0,0,0-1.13-.34l-.23.07a.94.94,0,0,0-.22.12.9.9,0,0,0-.19.15,1.39,1.39,0,0,0-.15.19.94.94,0,0,0-.12.22,1.55,1.55,0,0,0-.07.23,2,2,0,0,0,0,.25A1.25,1.25,0,0,0,22.78,77.42Z"/><path d="M25.73,74.13a.9.9,0,0,0,.15.19l.19.16.22.11a.88.88,0,0,0,.23.07,1,1,0,0,0,.25,0,1,1,0,0,0,.24,0,.88.88,0,0,0,.23-.07,1.51,1.51,0,0,0,.22-.11l.19-.16a1.46,1.46,0,0,0,.16-.19,2.12,2.12,0,0,0,.11-.21,1.09,1.09,0,0,0,.07-.24,1,1,0,0,0,0-.24,1.3,1.3,0,0,0-.37-.89,1.27,1.27,0,0,0-1.13-.34l-.23.07a.94.94,0,0,0-.22.12,1.39,1.39,0,0,0-.19.15,1.25,1.25,0,0,0-.15.19.94.94,0,0,0-.12.22,2,2,0,0,0-.07.23,1.06,1.06,0,0,0,0,.25,1,1,0,0,0,0,.24,2.17,2.17,0,0,0,.07.24A1.13,1.13,0,0,0,25.73,74.13Z"/><path d="M21.72,73a1.51,1.51,0,0,0-.11-.22c-.05-.06-.1-.13-.16-.19a1.31,1.31,0,0,0-1.77,0l-.15.19a.91.91,0,0,0-.11.22,1,1,0,0,0-.08.23,2.11,2.11,0,0,0,0,.25,1.94,1.94,0,0,0,0,.24,1.13,1.13,0,0,0,.08.24,1.06,1.06,0,0,0,.11.21l.15.19.19.16.22.11a1,1,0,0,0,.23.07,1.07,1.07,0,0,0,.25,0,1,1,0,0,0,.24,0,1.09,1.09,0,0,0,.24-.07l.21-.11.19-.16a1.23,1.23,0,0,0,.37-.88,1.07,1.07,0,0,0,0-.25A1,1,0,0,0,21.72,73Z"/></svg>